<svg width="30" height="30" viewBox="0 0 30 30" fill="none" xmlns="http://www.w3.org/2000/svg">
<path d="M26.0211 2.07129H15.8282C14.1529 2.07129 12.7832 3.45924 12.7832 5.13438V7.84141C12.7832 8.2609 13.1234 8.60083 13.5429 8.60083C13.9624 8.60083 14.3023 8.2609 14.3023 7.84141V5.13438C14.3044 4.28969 14.9835 3.60248 15.8282 3.59037H26.0211C26.859 3.59037 27.5181 4.29681 27.5181 5.13438V24.775C27.5281 25.6076 26.8613 26.2905 26.0287 26.3003H15.8285C14.9871 26.2972 14.3058 25.6161 14.3023 24.775V22.1245C14.3023 21.7048 13.9624 21.3649 13.5429 21.3649C13.1234 21.3649 12.7832 21.7048 12.7832 22.1245V24.775C12.7877 26.4549 14.1484 27.8153 15.8282 27.8193H26.0211C27.6932 27.8132 29.0439 26.4521 29.0372 24.7798V5.13438C29.0372 3.45924 27.6965 2.07129 26.0211 2.07129Z" fill="#224D84"/>
<path d="M3.51919 15.7429H21.4949C21.9144 15.7429 22.2545 15.4028 22.2545 14.9833C22.2545 14.564 21.9144 14.2239 21.4949 14.2239H3.35054L7.2474 9.71931C7.52224 9.39982 7.48803 8.91856 7.17163 8.64087C6.85594 8.36485 6.37634 8.39692 6.10055 8.71237V8.71285L1.18867 14.3704C1.00767 14.5194 0.905765 14.7436 0.912416 14.9776C0.919542 15.212 1.03451 15.4301 1.22431 15.5679L6.13666 20.4802C6.43335 20.7769 6.91437 20.7769 7.21059 20.4802C7.50347 20.1928 7.50799 19.7229 7.2208 19.43C7.21747 19.427 7.21415 19.4236 7.21059 19.4203L3.51919 15.7429Z" fill="#224D84"/>
</svg>
