<?xml version="1.0" encoding="UTF-8"?>
<!DOCTYPE svg PUBLIC "-//W3C//DTD SVG 1.1//EN" "http://www.w3.org/Graphics/SVG/1.1/DTD/svg11.dtd">
<!-- Creator: CorelDRAW X8 -->
<svg xmlns="http://www.w3.org/2000/svg" xml:space="preserve" width="100%" height="100%" version="1.1" style="shape-rendering:geometricPrecision; text-rendering:geometricPrecision; image-rendering:optimizeQuality; fill-rule:evenodd; clip-rule:evenodd"
viewBox="0 0 3568 3564"
 xmlns:xlink="http://www.w3.org/1999/xlink">
 <defs>
  <style type="text/css">
   <![CDATA[
    .fil3 {fill:none}
    .fil1 {fill:#006593}
    .fil0 {fill:#2195AE}
    .fil2 {fill:#224C84}
   ]]>
  </style>
 </defs>
 <g id="Слой_x0020_1">
  <metadata id="CorelCorpID_0Corel-Layer"/>
  <g id="_1021817984">
   <polygon class="fil0" points="0,1522 573,1522 573,1651 0,1651 "/>
   <polygon class="fil1" points="0,1713 573,1713 573,1842 0,1842 "/>
   <polygon class="fil2" points="0,1911 573,1911 573,2040 0,2040 "/>
   <path class="fil2" d="M717 1522l188 0 0 191 46 0 0 -49c0,-78 63,-142 141,-142l329 0c78,0 142,64 142,142l0 234c0,78 -64,142 -142,142l-329 0c-78,0 -141,-64 -141,-142l0 -3 187 0 237 0 0 -228 -237 0 0 175 -187 0 -46 0 0 198 -188 0 0 -518z"/>
   <path class="fil2" d="M1657 1522l443 0c71,0 129,58 129,129l0 0 -572 0 0 -129z"/>
   <path class="fil2" d="M1809 1713l420 0c0,31 -36,74 -62,74 36,0 62,44 62,85l0 39c0,71 -58,129 -129,129l-443 0 0 -129 384 0 0 -69 -232 0 0 -129z"/>
   <path class="fil2" d="M2448 1522l388 0 0 155 -328 0 0 366 -189 0 0 -392c0,-71 58,-129 129,-129z"/>
   <path class="fil2" d="M3108 1707l226 0 0 143 -226 0 -49 0c-78,0 -142,-63 -142,-141l0 -187 191 0 0 185z"/>
   <path class="fil2" d="M2917 1894l462 0 0 -371 189 0 0 371 0 4c0,78 -63,142 -141,142l-510 0 0 -146z"/>
  </g>
  <rect class="fil3" width="3568" height="3564"/>
 </g>
</svg>
