<svg width="30" height="30" viewBox="0 0 30 30" fill="none" xmlns="http://www.w3.org/2000/svg">
<path d="M14.8908 16.1648C14.9218 16.1648 14.9529 16.1648 14.9902 16.1648C15.0026 16.1648 15.015 16.1648 15.0274 16.1648C15.0461 16.1648 15.0709 16.1648 15.0896 16.1648C16.9098 16.1338 18.3822 15.4939 19.4693 14.27C21.8611 11.5738 21.4635 6.95175 21.4201 6.51067C21.2647 3.19942 19.6992 1.61524 18.407 0.875958C17.4441 0.323048 16.3196 0.0248499 15.0647 0H15.0212C15.015 0 15.0026 0 14.9964 0H14.9591C14.2695 0 12.9152 0.111824 11.6168 0.851108C10.3122 1.59039 8.72178 3.17457 8.56647 6.51067C8.52298 6.95175 8.12538 11.5738 10.5172 14.27C11.5981 15.4939 13.0705 16.1338 14.8908 16.1648ZM10.2252 6.66598C10.2252 6.64734 10.2314 6.6287 10.2314 6.61628C10.4364 2.16194 13.5986 1.68358 14.9529 1.68358H14.9777C14.9902 1.68358 15.0088 1.68358 15.0274 1.68358C16.7048 1.72085 19.5563 2.40422 19.7489 6.61628C19.7489 6.63491 19.7489 6.65355 19.7551 6.66598C19.7613 6.70946 20.1962 10.9339 18.2206 13.158C17.4379 14.0402 16.3942 14.475 15.0212 14.4875C15.0088 14.4875 15.0026 14.4875 14.9902 14.4875C14.9777 14.4875 14.9715 14.4875 14.9591 14.4875C13.5924 14.475 12.5424 14.0402 11.7659 13.158C9.79653 10.9464 10.219 6.70325 10.2252 6.66598Z" fill="#224D84"/>
<path d="M27.7565 23.831C27.7565 23.8248 27.7565 23.8186 27.7565 23.8124C27.7565 23.7627 27.7503 23.713 27.7503 23.6571C27.713 22.427 27.6323 19.5506 24.9361 18.6312C24.9174 18.625 24.8926 18.6188 24.8739 18.6126C22.0721 17.8981 19.7424 16.2829 19.7176 16.2643C19.3386 15.9971 18.8168 16.0903 18.5497 16.4693C18.2825 16.8482 18.3757 17.3701 18.7547 17.6372C18.8603 17.7118 21.3328 19.4326 24.4266 20.2278C25.8741 20.7434 26.0357 22.2904 26.0792 23.7068C26.0792 23.7627 26.0792 23.8124 26.0854 23.8621C26.0916 24.4212 26.0543 25.2848 25.9549 25.7818C24.9485 26.3533 21.0036 28.3289 15.0023 28.3289C9.02594 28.3289 5.05617 26.3471 4.04354 25.7755C3.94414 25.2785 3.90065 24.415 3.91308 23.8559C3.91308 23.8062 3.91929 23.7565 3.91929 23.7006C3.96278 22.2841 4.1243 20.7372 5.57181 20.2216C8.66562 19.4264 11.1382 17.6993 11.2438 17.631C11.6227 17.3639 11.7159 16.842 11.4488 16.4631C11.1817 16.0841 10.6598 15.9909 10.2809 16.258C10.256 16.2767 7.93876 17.8919 5.12451 18.6064C5.09966 18.6126 5.08102 18.6188 5.06239 18.625C2.36617 19.5506 2.28541 22.427 2.24814 23.6509C2.24814 23.7068 2.24814 23.7565 2.24193 23.8062C2.24193 23.8124 2.24193 23.8186 2.24193 23.8248C2.23571 24.1479 2.2295 25.8066 2.55876 26.6391C2.62089 26.8006 2.73271 26.9373 2.88181 27.0305C3.06818 27.1547 7.53495 30 15.0085 30C22.4821 30 26.9489 27.1485 27.1353 27.0305C27.2782 26.9373 27.3962 26.8006 27.4583 26.6391C27.769 25.8128 27.7627 24.1541 27.7565 23.831Z" fill="#224D84"/>
</svg>
